<svg enable-background="new" viewBox="0 0 100 100">
 <path d="m83.824 59.304c5.6631 10.299 8.4671 17.352 13.926 27.741 1.851 3.5232 3.6455 8.0567 0.64712 9.9691-5.8302 3.7185-7.8317-0.21677-11.208-7.1049-13.581-27.703-8.3529-17.782-12.678-26.83-1.6559-3.4689 7.0718-7.8504 9.3126-3.7753zm-17.679-11.427c-3.8829-7.4679-8.349-17.852-14.133-29.745-0.73071-1.5026-2.2935-1.7225-2.9635-0.37382-5.8622 11.799-11.502 22.518-14.981 30.08-1.8555 4.0326-11.513 0.88563-9.4341-3.1396l21.752-42.119c1.9889-3.4047 6.4668-3.3817 8.2002-0.2704 21.691 41.598 14.815 28.297 21.691 41.598 1.9935 3.8552-7.8178 8.4221-10.132 3.9717zm-40.071 16.1c-5.3582 10.301-9.4766 19.55-14.263 28.923-2.0512 4.0012-5.4563 6.7425-10.306 4.3642-2.9112-1.4275-1.0336-5.3953 0.90387-9.0958 14.503-27.7-2.0826 4.1121 14.503-27.7 2.1293-4.0842 11.029-0.23537 9.1626 3.5091z" opacity=".99" stroke-width="1.678"/>
 <path d="m50.046 22.531c-2.6589 0-4.4932 0.71458-5.0272 11.337-0.72638 14.45-0.54489 32.468 0.18077 46.811 0.62011 12.257 1.3744 19.322 4.8462 19.322 3.4719 0 4.2254-7.0646 4.8453-19.322 0.72566-14.344 0.90716-32.362 0.18077-46.811-0.53396-10.622-2.3673-11.337-5.0263-11.337z" opacity=".99" stroke-width="1.0395"/>
 <g transform="matrix(.52851 0 0 .51113 85.802 8.7044)">
  <path d="m-115.88 79.892c-19.614-2.5574-22.122-3.7828-22.122 3.084s7.4945 12.352 22.122 15.254c35.707 7.0837 60.87 7.4637 91.586 0.13591 23.354-5.5714 24.621-8.8211 24.621-15.39-4e-6 -6.5692-0.78871-5.5951-24.621-2.6898-33.735 4.1125-54.51 4.4405-91.586-0.39377z" fill="#010101" opacity=".99" stroke-width="2"/>
 </g>
</svg>
